<mxfile host="app.diagrams.net" modified="2023-05-03T19:59:19.967Z" agent="Mozilla/5.0 (Windows NT 10.0; Win64; x64) AppleWebKit/537.36 (KHTML, like Gecko) Chrome/112.0.0.0 Safari/537.36" etag="iNaxCyFECGZwLP0Dd-Bu" version="21.2.7" type="github" pages="3">
  <diagram name="index.html" id="in-HmX2zSDTcT8OPieTk">
    <mxGraphModel dx="3217" dy="1273" grid="1" gridSize="10" guides="1" tooltips="1" connect="1" arrows="1" fold="1" page="1" pageScale="1" pageWidth="827" pageHeight="1169" math="0" shadow="0">
      <root>
        <mxCell id="0" />
        <mxCell id="1" parent="0" />
        <mxCell id="lnbbTlCJEyNKtAWGmPuE-1" value="" style="rounded=0;whiteSpace=wrap;html=1;" vertex="1" parent="1">
          <mxGeometry x="-810" width="1630" height="60" as="geometry" />
        </mxCell>
        <mxCell id="lnbbTlCJEyNKtAWGmPuE-3" value="HOME" style="rounded=0;whiteSpace=wrap;html=1;" vertex="1" parent="1">
          <mxGeometry x="-590" width="120" height="60" as="geometry" />
        </mxCell>
        <mxCell id="lnbbTlCJEyNKtAWGmPuE-4" value="CONTACT US" style="rounded=0;whiteSpace=wrap;html=1;" vertex="1" parent="1">
          <mxGeometry x="-450" width="120" height="60" as="geometry" />
        </mxCell>
        <mxCell id="lnbbTlCJEyNKtAWGmPuE-5" value="LOGO" style="rounded=0;whiteSpace=wrap;html=1;" vertex="1" parent="1">
          <mxGeometry x="-810" width="90" height="60" as="geometry" />
        </mxCell>
        <mxCell id="lnbbTlCJEyNKtAWGmPuE-6" value="SEARCH" style="rounded=0;whiteSpace=wrap;html=1;" vertex="1" parent="1">
          <mxGeometry x="240" width="570" height="60" as="geometry" />
        </mxCell>
        <mxCell id="lnbbTlCJEyNKtAWGmPuE-7" value="&lt;font style=&quot;font-size: 24px;&quot;&gt;INTRO: -project name, project idea - a few words&lt;/font&gt;" style="rounded=0;whiteSpace=wrap;html=1;" vertex="1" parent="1">
          <mxGeometry x="-365" y="120" width="730" height="60" as="geometry" />
        </mxCell>
        <mxCell id="lnbbTlCJEyNKtAWGmPuE-8" value="&lt;font style=&quot;font-size: 18px;&quot;&gt;COMEDIES&lt;/font&gt;" style="rounded=0;whiteSpace=wrap;html=1;" vertex="1" parent="1">
          <mxGeometry x="-730" y="280" width="340" height="60" as="geometry" />
        </mxCell>
        <mxCell id="lnbbTlCJEyNKtAWGmPuE-9" value="&lt;font style=&quot;font-size: 18px;&quot;&gt;FICTION&lt;/font&gt;" style="rounded=0;whiteSpace=wrap;html=1;" vertex="1" parent="1">
          <mxGeometry x="-170" y="280" width="340" height="60" as="geometry" />
        </mxCell>
        <mxCell id="lnbbTlCJEyNKtAWGmPuE-10" value="&lt;font style=&quot;font-size: 18px;&quot;&gt;ETC.&lt;/font&gt;" style="rounded=0;whiteSpace=wrap;html=1;" vertex="1" parent="1">
          <mxGeometry x="330" y="280" width="340" height="60" as="geometry" />
        </mxCell>
        <mxCell id="lnbbTlCJEyNKtAWGmPuE-11" value="FOOTER" style="rounded=0;whiteSpace=wrap;html=1;" vertex="1" parent="1">
          <mxGeometry x="-805" y="1100" width="1620" height="60" as="geometry" />
        </mxCell>
        <mxCell id="lnbbTlCJEyNKtAWGmPuE-12" value="&lt;font style=&quot;font-size: 48px;&quot;&gt;CAROUSEL SLIDE WITH PICTURES&lt;/font&gt;" style="rounded=0;whiteSpace=wrap;html=1;" vertex="1" parent="1">
          <mxGeometry x="-640" y="420" width="1260" height="550" as="geometry" />
        </mxCell>
      </root>
    </mxGraphModel>
  </diagram>
  <diagram name="contact.html" id="GP8ZO5HQrm2VDr6JMqPt">
    <mxGraphModel dx="3695" dy="1528" grid="1" gridSize="10" guides="1" tooltips="1" connect="1" arrows="1" fold="1" page="1" pageScale="1" pageWidth="827" pageHeight="1169" math="0" shadow="0">
      <root>
        <mxCell id="cI7yzCesYFDpvCi93ih_-0" />
        <mxCell id="cI7yzCesYFDpvCi93ih_-1" parent="cI7yzCesYFDpvCi93ih_-0" />
        <mxCell id="cI7yzCesYFDpvCi93ih_-2" value="" style="rounded=0;whiteSpace=wrap;html=1;" vertex="1" parent="cI7yzCesYFDpvCi93ih_-1">
          <mxGeometry x="-810" width="1630" height="60" as="geometry" />
        </mxCell>
        <mxCell id="cI7yzCesYFDpvCi93ih_-3" value="HOME" style="rounded=0;whiteSpace=wrap;html=1;" vertex="1" parent="cI7yzCesYFDpvCi93ih_-1">
          <mxGeometry x="-590" width="120" height="60" as="geometry" />
        </mxCell>
        <mxCell id="cI7yzCesYFDpvCi93ih_-4" value="ABOUT US" style="rounded=0;whiteSpace=wrap;html=1;" vertex="1" parent="cI7yzCesYFDpvCi93ih_-1">
          <mxGeometry x="-450" width="120" height="60" as="geometry" />
        </mxCell>
        <mxCell id="cI7yzCesYFDpvCi93ih_-5" value="LOGO" style="rounded=0;whiteSpace=wrap;html=1;" vertex="1" parent="cI7yzCesYFDpvCi93ih_-1">
          <mxGeometry x="-810" width="90" height="60" as="geometry" />
        </mxCell>
        <mxCell id="cI7yzCesYFDpvCi93ih_-6" value="SEARCH" style="rounded=0;whiteSpace=wrap;html=1;" vertex="1" parent="cI7yzCesYFDpvCi93ih_-1">
          <mxGeometry x="240" width="570" height="60" as="geometry" />
        </mxCell>
        <mxCell id="cI7yzCesYFDpvCi93ih_-11" value="FOOTER" style="rounded=0;whiteSpace=wrap;html=1;" vertex="1" parent="cI7yzCesYFDpvCi93ih_-1">
          <mxGeometry x="-805" y="1100" width="1620" height="60" as="geometry" />
        </mxCell>
        <mxCell id="tqVZRz35KQlcL2Ao4RZu-0" value="" style="rounded=0;whiteSpace=wrap;html=1;" vertex="1" parent="cI7yzCesYFDpvCi93ih_-1">
          <mxGeometry x="-805" y="240" width="730" height="60" as="geometry" />
        </mxCell>
        <mxCell id="tqVZRz35KQlcL2Ao4RZu-1" value="&lt;font style=&quot;font-size: 24px;&quot;&gt;CONTACT US&lt;/font&gt;" style="rounded=0;whiteSpace=wrap;html=1;" vertex="1" parent="cI7yzCesYFDpvCi93ih_-1">
          <mxGeometry x="-800" y="100" width="250" height="60" as="geometry" />
        </mxCell>
        <mxCell id="tqVZRz35KQlcL2Ao4RZu-2" value="&lt;font style=&quot;font-size: 24px;&quot;&gt;NAME&lt;/font&gt;" style="text;html=1;align=center;verticalAlign=middle;resizable=0;points=[];autosize=1;strokeColor=none;fillColor=none;" vertex="1" parent="cI7yzCesYFDpvCi93ih_-1">
          <mxGeometry x="-805" y="185" width="90" height="40" as="geometry" />
        </mxCell>
        <mxCell id="tqVZRz35KQlcL2Ao4RZu-3" value="&lt;font style=&quot;font-size: 24px;&quot;&gt;EMAIL&lt;/font&gt;" style="text;html=1;align=center;verticalAlign=middle;resizable=0;points=[];autosize=1;strokeColor=none;fillColor=none;" vertex="1" parent="cI7yzCesYFDpvCi93ih_-1">
          <mxGeometry x="-810" y="350" width="100" height="40" as="geometry" />
        </mxCell>
        <mxCell id="tqVZRz35KQlcL2Ao4RZu-5" value="" style="rounded=0;whiteSpace=wrap;html=1;" vertex="1" parent="cI7yzCesYFDpvCi93ih_-1">
          <mxGeometry x="-805" y="410" width="730" height="60" as="geometry" />
        </mxCell>
        <mxCell id="tqVZRz35KQlcL2Ao4RZu-6" value="" style="rounded=0;whiteSpace=wrap;html=1;" vertex="1" parent="cI7yzCesYFDpvCi93ih_-1">
          <mxGeometry x="-800" y="560" width="730" height="330" as="geometry" />
        </mxCell>
        <mxCell id="tqVZRz35KQlcL2Ao4RZu-7" value="&lt;font style=&quot;font-size: 24px;&quot;&gt;MESSAGE&lt;/font&gt;" style="text;html=1;align=center;verticalAlign=middle;resizable=0;points=[];autosize=1;strokeColor=none;fillColor=none;" vertex="1" parent="cI7yzCesYFDpvCi93ih_-1">
          <mxGeometry x="-800" y="510" width="140" height="40" as="geometry" />
        </mxCell>
        <mxCell id="tqVZRz35KQlcL2Ao4RZu-8" value="&lt;font style=&quot;font-size: 24px;&quot;&gt;ABOUT US&lt;/font&gt;" style="rounded=0;whiteSpace=wrap;html=1;" vertex="1" parent="cI7yzCesYFDpvCi93ih_-1">
          <mxGeometry x="30" y="100" width="250" height="60" as="geometry" />
        </mxCell>
        <mxCell id="tqVZRz35KQlcL2Ao4RZu-9" value="&lt;font style=&quot;font-size: 24px;&quot;&gt;PICTURE&lt;/font&gt;" style="whiteSpace=wrap;html=1;aspect=fixed;" vertex="1" parent="cI7yzCesYFDpvCi93ih_-1">
          <mxGeometry x="30" y="200" width="150" height="150" as="geometry" />
        </mxCell>
        <mxCell id="tqVZRz35KQlcL2Ao4RZu-10" value="&lt;font style=&quot;font-size: 24px;&quot;&gt;TEXT ABOUT US - BACKGROUND&lt;/font&gt;" style="text;html=1;align=center;verticalAlign=middle;resizable=0;points=[];autosize=1;strokeColor=none;fillColor=none;" vertex="1" parent="cI7yzCesYFDpvCi93ih_-1">
          <mxGeometry x="210" y="200" width="410" height="40" as="geometry" />
        </mxCell>
        <mxCell id="tqVZRz35KQlcL2Ao4RZu-11" value="&lt;font style=&quot;font-size: 24px;&quot;&gt;PICTURE&lt;/font&gt;" style="whiteSpace=wrap;html=1;aspect=fixed;" vertex="1" parent="cI7yzCesYFDpvCi93ih_-1">
          <mxGeometry x="640" y="360" width="150" height="150" as="geometry" />
        </mxCell>
        <mxCell id="tqVZRz35KQlcL2Ao4RZu-12" value="&lt;font style=&quot;font-size: 24px;&quot;&gt;TEXT ABOUT US - BACKGROUND&lt;/font&gt;" style="text;html=1;align=center;verticalAlign=middle;resizable=0;points=[];autosize=1;strokeColor=none;fillColor=none;" vertex="1" parent="cI7yzCesYFDpvCi93ih_-1">
          <mxGeometry x="209" y="360" width="410" height="40" as="geometry" />
        </mxCell>
        <mxCell id="tqVZRz35KQlcL2Ao4RZu-13" value="&lt;font style=&quot;font-size: 24px;&quot;&gt;PICTURE&lt;/font&gt;" style="whiteSpace=wrap;html=1;aspect=fixed;" vertex="1" parent="cI7yzCesYFDpvCi93ih_-1">
          <mxGeometry x="30" y="540" width="150" height="150" as="geometry" />
        </mxCell>
        <mxCell id="tqVZRz35KQlcL2Ao4RZu-14" value="&lt;font style=&quot;font-size: 24px;&quot;&gt;TEXT ABOUT US - BACKGROUND&lt;/font&gt;" style="text;html=1;align=center;verticalAlign=middle;resizable=0;points=[];autosize=1;strokeColor=none;fillColor=none;" vertex="1" parent="cI7yzCesYFDpvCi93ih_-1">
          <mxGeometry x="209" y="545" width="410" height="40" as="geometry" />
        </mxCell>
      </root>
    </mxGraphModel>
  </diagram>
  <diagram name="comedy.html" id="DlJqLkB7KSnXDbIabpaY">
    <mxGraphModel dx="3695" dy="1528" grid="1" gridSize="10" guides="1" tooltips="1" connect="1" arrows="1" fold="1" page="1" pageScale="1" pageWidth="827" pageHeight="1169" math="0" shadow="0">
      <root>
        <mxCell id="Sghh8qsq5PK4GzIrMxbv-0" />
        <mxCell id="Sghh8qsq5PK4GzIrMxbv-1" parent="Sghh8qsq5PK4GzIrMxbv-0" />
        <mxCell id="Sghh8qsq5PK4GzIrMxbv-2" value="" style="rounded=0;whiteSpace=wrap;html=1;" vertex="1" parent="Sghh8qsq5PK4GzIrMxbv-1">
          <mxGeometry x="-810" width="1630" height="60" as="geometry" />
        </mxCell>
        <mxCell id="Sghh8qsq5PK4GzIrMxbv-3" value="HOME" style="rounded=0;whiteSpace=wrap;html=1;" vertex="1" parent="Sghh8qsq5PK4GzIrMxbv-1">
          <mxGeometry x="-590" width="120" height="60" as="geometry" />
        </mxCell>
        <mxCell id="Sghh8qsq5PK4GzIrMxbv-4" value="CONTACT US" style="rounded=0;whiteSpace=wrap;html=1;" vertex="1" parent="Sghh8qsq5PK4GzIrMxbv-1">
          <mxGeometry x="-450" width="120" height="60" as="geometry" />
        </mxCell>
        <mxCell id="Sghh8qsq5PK4GzIrMxbv-5" value="LOGO" style="rounded=0;whiteSpace=wrap;html=1;" vertex="1" parent="Sghh8qsq5PK4GzIrMxbv-1">
          <mxGeometry x="-810" width="90" height="60" as="geometry" />
        </mxCell>
        <mxCell id="Sghh8qsq5PK4GzIrMxbv-6" value="SEARCH" style="rounded=0;whiteSpace=wrap;html=1;" vertex="1" parent="Sghh8qsq5PK4GzIrMxbv-1">
          <mxGeometry x="240" width="570" height="60" as="geometry" />
        </mxCell>
        <mxCell id="Sghh8qsq5PK4GzIrMxbv-7" value="&lt;font style=&quot;font-size: 24px;&quot;&gt;TITLE - INTRO&lt;/font&gt;" style="rounded=0;whiteSpace=wrap;html=1;" vertex="1" parent="Sghh8qsq5PK4GzIrMxbv-1">
          <mxGeometry x="-365" y="120" width="730" height="60" as="geometry" />
        </mxCell>
        <mxCell id="Sghh8qsq5PK4GzIrMxbv-8" value="&lt;font style=&quot;font-size: 24px;&quot;&gt;TITLE - BOOK/MOVIE&lt;/font&gt;" style="rounded=0;whiteSpace=wrap;html=1;" vertex="1" parent="Sghh8qsq5PK4GzIrMxbv-1">
          <mxGeometry x="-730" y="430" width="340" height="60" as="geometry" />
        </mxCell>
        <mxCell id="Sghh8qsq5PK4GzIrMxbv-9" value="&lt;font style=&quot;font-size: 24px;&quot;&gt;TITLE - BOOK/MOVIE&lt;/font&gt;" style="rounded=0;whiteSpace=wrap;html=1;" vertex="1" parent="Sghh8qsq5PK4GzIrMxbv-1">
          <mxGeometry x="-165" y="430" width="340" height="60" as="geometry" />
        </mxCell>
        <mxCell id="Sghh8qsq5PK4GzIrMxbv-10" value="&lt;font style=&quot;font-size: 24px;&quot;&gt;TITLE - BOOK/MOVIE&lt;/font&gt;" style="rounded=0;whiteSpace=wrap;html=1;" vertex="1" parent="Sghh8qsq5PK4GzIrMxbv-1">
          <mxGeometry x="360" y="430" width="340" height="60" as="geometry" />
        </mxCell>
        <mxCell id="Sghh8qsq5PK4GzIrMxbv-11" value="FOOTER" style="rounded=0;whiteSpace=wrap;html=1;" vertex="1" parent="Sghh8qsq5PK4GzIrMxbv-1">
          <mxGeometry x="-805" y="1100" width="1620" height="60" as="geometry" />
        </mxCell>
        <mxCell id="vxREKwL84VARESePdh6O-0" value="&lt;font style=&quot;font-size: 24px;&quot;&gt;PIC&lt;/font&gt;" style="whiteSpace=wrap;html=1;aspect=fixed;" vertex="1" parent="Sghh8qsq5PK4GzIrMxbv-1">
          <mxGeometry x="-660" y="210" width="200" height="200" as="geometry" />
        </mxCell>
        <mxCell id="vxREKwL84VARESePdh6O-1" value="&lt;font style=&quot;font-size: 24px;&quot;&gt;PIC&lt;/font&gt;" style="whiteSpace=wrap;html=1;aspect=fixed;" vertex="1" parent="Sghh8qsq5PK4GzIrMxbv-1">
          <mxGeometry x="-100" y="210" width="200" height="200" as="geometry" />
        </mxCell>
        <mxCell id="vxREKwL84VARESePdh6O-2" value="&lt;font style=&quot;font-size: 24px;&quot;&gt;PIC&lt;/font&gt;" style="whiteSpace=wrap;html=1;aspect=fixed;" vertex="1" parent="Sghh8qsq5PK4GzIrMxbv-1">
          <mxGeometry x="425" y="210" width="200" height="200" as="geometry" />
        </mxCell>
        <mxCell id="vxREKwL84VARESePdh6O-7" value="&lt;div style=&quot;text-align: left;&quot;&gt;&lt;span style=&quot;font-size: 18px; background-color: initial;&quot;&gt;TEXT&amp;nbsp;&lt;/span&gt;&lt;/div&gt;&lt;font style=&quot;font-size: 18px;&quot;&gt;&lt;div style=&quot;text-align: left;&quot;&gt;&lt;span style=&quot;background-color: initial;&quot;&gt;MOVIE TRAILER&lt;/span&gt;&lt;/div&gt;&lt;div style=&quot;text-align: left;&quot;&gt;&lt;span style=&quot;background-color: initial;&quot;&gt;BUTTON WITH LINK TO BUY&amp;nbsp; IT&lt;/span&gt;&lt;/div&gt;&lt;/font&gt;" style="whiteSpace=wrap;html=1;aspect=fixed;" vertex="1" parent="Sghh8qsq5PK4GzIrMxbv-1">
          <mxGeometry x="-730" y="520" width="340" height="340" as="geometry" />
        </mxCell>
        <mxCell id="vxREKwL84VARESePdh6O-8" value="&lt;div style=&quot;text-align: left;&quot;&gt;&lt;span style=&quot;font-size: 18px; background-color: initial;&quot;&gt;TEXT&amp;nbsp;&lt;/span&gt;&lt;/div&gt;&lt;font style=&quot;font-size: 18px;&quot;&gt;&lt;div style=&quot;text-align: left;&quot;&gt;&lt;span style=&quot;background-color: initial;&quot;&gt;MOVIE TRAILER&lt;/span&gt;&lt;/div&gt;&lt;div style=&quot;text-align: left;&quot;&gt;&lt;span style=&quot;background-color: initial;&quot;&gt;BUTTON WITH LINK TO BUY&amp;nbsp; IT&lt;/span&gt;&lt;/div&gt;&lt;/font&gt;" style="whiteSpace=wrap;html=1;aspect=fixed;" vertex="1" parent="Sghh8qsq5PK4GzIrMxbv-1">
          <mxGeometry x="-170" y="520" width="340" height="340" as="geometry" />
        </mxCell>
        <mxCell id="vxREKwL84VARESePdh6O-9" value="&lt;div style=&quot;text-align: left;&quot;&gt;&lt;span style=&quot;font-size: 18px; background-color: initial;&quot;&gt;TEXT&amp;nbsp;&lt;/span&gt;&lt;/div&gt;&lt;font style=&quot;font-size: 18px;&quot;&gt;&lt;div style=&quot;text-align: left;&quot;&gt;&lt;span style=&quot;background-color: initial;&quot;&gt;MOVIE TRAILER&lt;/span&gt;&lt;/div&gt;&lt;div style=&quot;text-align: left;&quot;&gt;&lt;span style=&quot;background-color: initial;&quot;&gt;BUTTON WITH LINK TO BUY&amp;nbsp; IT&lt;/span&gt;&lt;/div&gt;&lt;/font&gt;" style="whiteSpace=wrap;html=1;aspect=fixed;" vertex="1" parent="Sghh8qsq5PK4GzIrMxbv-1">
          <mxGeometry x="360" y="530" width="340" height="340" as="geometry" />
        </mxCell>
      </root>
    </mxGraphModel>
  </diagram>
</mxfile>
